<svg id="visual" viewBox="0 0 960 540" width="960" height="540" xmlns="http://www.w3.org/2000/svg" xmlns:xlink="http://www.w3.org/1999/xlink" version="1.1"><rect x="0" y="0" width="960" height="540" fill="#ede3dc"></rect><defs><linearGradient id="grad1_0" x1="43.8%" y1="0%" x2="100%" y2="100%"><stop offset="14.444444444444446%" stop-color="#ede3dc" stop-opacity="1"></stop><stop offset="85.55555555555554%" stop-color="#ede3dc" stop-opacity="1"></stop></linearGradient></defs><defs><linearGradient id="grad2_0" x1="0%" y1="0%" x2="56.3%" y2="100%"><stop offset="14.444444444444446%" stop-color="#ede3dc" stop-opacity="1"></stop><stop offset="85.55555555555554%" stop-color="#ede3dc" stop-opacity="1"></stop></linearGradient></defs><g transform="translate(960, 0)"><path d="M0 444C-43.9 469.5 -87.7 494.9 -132.8 495.5C-177.8 496.1 -224.1 471.8 -246.5 427C-268.9 382.1 -267.6 316.7 -274.4 274.4C-281.2 232 -296.1 212.6 -334.3 193C-372.4 173.4 -433.7 153.6 -453 121.4C-472.3 89.2 -449.7 44.6 -427 0L0 0Z" fill="#96a196"></path></g><g transform="translate(0, 540)"><path d="M0 -484C35.2 -444.5 70.3 -405 103 -384.4C135.7 -363.9 166 -362.2 211.5 -366.3C257 -370.4 317.9 -380.2 362.7 -362.7C407.6 -345.3 436.5 -300.5 436.5 -252C436.4 -203.5 407.4 -151.3 405.7 -108.7C404 -66.1 429.5 -33 455 0L0 0Z" fill="#96a196"></path></g></svg>