<svg id="visual" viewBox="0 0 960 300" width="960" height="300" xmlns="http://www.w3.org/2000/svg" xmlns:xlink="http://www.w3.org/1999/xlink" version="1.1"><path d="M0 186L10.7 185.5C21.3 185 42.7 184 64 185.8C85.3 187.7 106.7 192.3 128 194.7C149.3 197 170.7 197 192 192.2C213.3 187.3 234.7 177.7 256 175.3C277.3 173 298.7 178 320 182.2C341.3 186.3 362.7 189.7 384 190.2C405.3 190.7 426.7 188.3 448 187C469.3 185.7 490.7 185.3 512 184.8C533.3 184.3 554.7 183.7 576 182.2C597.3 180.7 618.7 178.3 640 180C661.3 181.7 682.7 187.3 704 189.8C725.3 192.3 746.7 191.7 768 189.8C789.3 188 810.7 185 832 183.8C853.3 182.7 874.7 183.3 896 185.7C917.3 188 938.7 192 949.3 194L960 196L960 301L949.3 301C938.7 301 917.3 301 896 301C874.7 301 853.3 301 832 301C810.7 301 789.3 301 768 301C746.7 301 725.3 301 704 301C682.7 301 661.3 301 640 301C618.7 301 597.3 301 576 301C554.7 301 533.3 301 512 301C490.7 301 469.3 301 448 301C426.7 301 405.3 301 384 301C362.7 301 341.3 301 320 301C298.7 301 277.3 301 256 301C234.7 301 213.3 301 192 301C170.7 301 149.3 301 128 301C106.7 301 85.3 301 64 301C42.7 301 21.3 301 10.7 301L0 301Z" fill="#757067"></path><path d="M0 203L10.7 204.2C21.3 205.3 42.7 207.7 64 207.2C85.3 206.7 106.7 203.3 128 202.7C149.3 202 170.7 204 192 206C213.3 208 234.7 210 256 209.5C277.3 209 298.7 206 320 206.2C341.3 206.3 362.7 209.7 384 210.8C405.3 212 426.7 211 448 208.3C469.3 205.7 490.7 201.3 512 201.7C533.3 202 554.7 207 576 210C597.3 213 618.7 214 640 213.2C661.3 212.3 682.7 209.7 704 208.5C725.3 207.3 746.7 207.7 768 209.7C789.3 211.7 810.7 215.3 832 215C853.3 214.7 874.7 210.3 896 210C917.3 209.7 938.7 213.3 949.3 215.2L960 217L960 301L949.3 301C938.7 301 917.3 301 896 301C874.7 301 853.3 301 832 301C810.7 301 789.3 301 768 301C746.7 301 725.3 301 704 301C682.7 301 661.3 301 640 301C618.7 301 597.3 301 576 301C554.7 301 533.3 301 512 301C490.7 301 469.3 301 448 301C426.7 301 405.3 301 384 301C362.7 301 341.3 301 320 301C298.7 301 277.3 301 256 301C234.7 301 213.3 301 192 301C170.7 301 149.3 301 128 301C106.7 301 85.3 301 64 301C42.7 301 21.3 301 10.7 301L0 301Z" fill="#7e7c72"></path><path d="M0 241L10.7 240.3C21.3 239.7 42.7 238.3 64 237.3C85.3 236.3 106.7 235.7 128 233.3C149.3 231 170.7 227 192 225.3C213.3 223.7 234.7 224.3 256 227.3C277.3 230.3 298.7 235.7 320 234.2C341.3 232.7 362.7 224.3 384 223.3C405.3 222.3 426.7 228.7 448 233C469.3 237.3 490.7 239.7 512 237.2C533.3 234.7 554.7 227.3 576 224.5C597.3 221.7 618.7 223.3 640 226.2C661.3 229 682.7 233 704 233.7C725.3 234.3 746.7 231.7 768 230.5C789.3 229.3 810.7 229.7 832 229.3C853.3 229 874.7 228 896 226.7C917.3 225.3 938.7 223.7 949.3 222.8L960 222L960 301L949.3 301C938.7 301 917.3 301 896 301C874.7 301 853.3 301 832 301C810.7 301 789.3 301 768 301C746.7 301 725.3 301 704 301C682.7 301 661.3 301 640 301C618.7 301 597.3 301 576 301C554.7 301 533.3 301 512 301C490.7 301 469.3 301 448 301C426.7 301 405.3 301 384 301C362.7 301 341.3 301 320 301C298.7 301 277.3 301 256 301C234.7 301 213.3 301 192 301C170.7 301 149.3 301 128 301C106.7 301 85.3 301 64 301C42.7 301 21.3 301 10.7 301L0 301Z" fill="#86887d"></path><path d="M0 259L10.7 257.2C21.3 255.3 42.7 251.7 64 249.2C85.3 246.7 106.7 245.3 128 243.7C149.3 242 170.7 240 192 242.5C213.3 245 234.7 252 256 254C277.3 256 298.7 253 320 253.8C341.3 254.7 362.7 259.3 384 261.5C405.3 263.7 426.7 263.3 448 259.7C469.3 256 490.7 249 512 247.5C533.3 246 554.7 250 576 253.3C597.3 256.7 618.7 259.3 640 260.2C661.3 261 682.7 260 704 257.3C725.3 254.7 746.7 250.3 768 248C789.3 245.7 810.7 245.3 832 247.2C853.3 249 874.7 253 896 253.5C917.3 254 938.7 251 949.3 249.5L960 248L960 301L949.3 301C938.7 301 917.3 301 896 301C874.7 301 853.3 301 832 301C810.7 301 789.3 301 768 301C746.7 301 725.3 301 704 301C682.7 301 661.3 301 640 301C618.7 301 597.3 301 576 301C554.7 301 533.3 301 512 301C490.7 301 469.3 301 448 301C426.7 301 405.3 301 384 301C362.7 301 341.3 301 320 301C298.7 301 277.3 301 256 301C234.7 301 213.3 301 192 301C170.7 301 149.3 301 128 301C106.7 301 85.3 301 64 301C42.7 301 21.3 301 10.7 301L0 301Z" fill="#8e9489"></path><path d="M0 280L10.7 278.2C21.3 276.3 42.7 272.7 64 272.7C85.3 272.7 106.7 276.3 128 276.7C149.3 277 170.7 274 192 274.2C213.3 274.3 234.7 277.7 256 276.5C277.3 275.3 298.7 269.7 320 270C341.3 270.3 362.7 276.7 384 277.2C405.3 277.7 426.7 272.3 448 270.2C469.3 268 490.7 269 512 271C533.3 273 554.7 276 576 275.8C597.3 275.7 618.7 272.3 640 270.2C661.3 268 682.7 267 704 268.3C725.3 269.7 746.7 273.3 768 272.7C789.3 272 810.7 267 832 266C853.3 265 874.7 268 896 268.2C917.3 268.3 938.7 265.7 949.3 264.3L960 263L960 301L949.3 301C938.7 301 917.3 301 896 301C874.7 301 853.3 301 832 301C810.7 301 789.3 301 768 301C746.7 301 725.3 301 704 301C682.7 301 661.3 301 640 301C618.7 301 597.3 301 576 301C554.7 301 533.3 301 512 301C490.7 301 469.3 301 448 301C426.7 301 405.3 301 384 301C362.7 301 341.3 301 320 301C298.7 301 277.3 301 256 301C234.7 301 213.3 301 192 301C170.7 301 149.3 301 128 301C106.7 301 85.3 301 64 301C42.7 301 21.3 301 10.7 301L0 301Z" fill="#96a196"></path></svg>