<svg id="visual" viewBox="0 0 960 300" width="960" height="300" xmlns="http://www.w3.org/2000/svg" xmlns:xlink="http://www.w3.org/1999/xlink" version="1.1"><path d="M0 112L10.7 112.5C21.3 113 42.7 114 64 112.2C85.3 110.3 106.7 105.7 128 103.3C149.3 101 170.7 101 192 105.8C213.3 110.7 234.7 120.3 256 122.7C277.3 125 298.7 120 320 115.8C341.3 111.7 362.7 108.3 384 107.8C405.3 107.3 426.7 109.7 448 111C469.3 112.3 490.7 112.7 512 113.2C533.3 113.7 554.7 114.3 576 115.8C597.3 117.3 618.7 119.7 640 118C661.3 116.3 682.7 110.7 704 108.2C725.3 105.7 746.7 106.3 768 108.2C789.3 110 810.7 113 832 114.2C853.3 115.3 874.7 114.7 896 112.3C917.3 110 938.7 106 949.3 104L960 102L960 0L949.3 0C938.7 0 917.3 0 896 0C874.7 0 853.3 0 832 0C810.7 0 789.3 0 768 0C746.7 0 725.3 0 704 0C682.7 0 661.3 0 640 0C618.7 0 597.3 0 576 0C554.7 0 533.3 0 512 0C490.7 0 469.3 0 448 0C426.7 0 405.3 0 384 0C362.7 0 341.3 0 320 0C298.7 0 277.3 0 256 0C234.7 0 213.3 0 192 0C170.7 0 149.3 0 128 0C106.7 0 85.3 0 64 0C42.7 0 21.3 0 10.7 0L0 0Z" fill="#757067"></path><path d="M0 95L10.7 93.8C21.3 92.7 42.7 90.3 64 90.8C85.3 91.3 106.7 94.7 128 95.3C149.3 96 170.7 94 192 92C213.3 90 234.7 88 256 88.5C277.3 89 298.7 92 320 91.8C341.3 91.7 362.7 88.3 384 87.2C405.3 86 426.7 87 448 89.7C469.3 92.3 490.7 96.7 512 96.3C533.3 96 554.7 91 576 88C597.3 85 618.7 84 640 84.8C661.3 85.7 682.7 88.3 704 89.5C725.3 90.7 746.7 90.3 768 88.3C789.3 86.3 810.7 82.7 832 83C853.3 83.3 874.7 87.7 896 88C917.3 88.3 938.7 84.7 949.3 82.8L960 81L960 0L949.3 0C938.7 0 917.3 0 896 0C874.7 0 853.3 0 832 0C810.7 0 789.3 0 768 0C746.7 0 725.3 0 704 0C682.7 0 661.3 0 640 0C618.7 0 597.3 0 576 0C554.7 0 533.3 0 512 0C490.7 0 469.3 0 448 0C426.7 0 405.3 0 384 0C362.7 0 341.3 0 320 0C298.7 0 277.3 0 256 0C234.7 0 213.3 0 192 0C170.7 0 149.3 0 128 0C106.7 0 85.3 0 64 0C42.7 0 21.3 0 10.7 0L0 0Z" fill="#7e7c72"></path><path d="M0 57L10.7 57.7C21.3 58.3 42.7 59.7 64 60.7C85.3 61.7 106.7 62.3 128 64.7C149.3 67 170.7 71 192 72.7C213.3 74.3 234.7 73.7 256 70.7C277.3 67.7 298.7 62.3 320 63.8C341.3 65.3 362.7 73.7 384 74.7C405.3 75.7 426.7 69.3 448 65C469.3 60.7 490.7 58.3 512 60.8C533.3 63.3 554.7 70.7 576 73.5C597.3 76.3 618.7 74.7 640 71.8C661.3 69 682.7 65 704 64.3C725.3 63.7 746.7 66.3 768 67.5C789.3 68.7 810.7 68.3 832 68.7C853.3 69 874.7 70 896 71.3C917.3 72.7 938.7 74.3 949.3 75.2L960 76L960 0L949.3 0C938.7 0 917.3 0 896 0C874.7 0 853.3 0 832 0C810.7 0 789.3 0 768 0C746.7 0 725.3 0 704 0C682.7 0 661.3 0 640 0C618.7 0 597.3 0 576 0C554.7 0 533.3 0 512 0C490.7 0 469.3 0 448 0C426.7 0 405.3 0 384 0C362.7 0 341.3 0 320 0C298.7 0 277.3 0 256 0C234.7 0 213.3 0 192 0C170.7 0 149.3 0 128 0C106.7 0 85.3 0 64 0C42.7 0 21.3 0 10.7 0L0 0Z" fill="#86887d"></path><path d="M0 39L10.7 40.8C21.3 42.7 42.7 46.3 64 48.8C85.3 51.3 106.7 52.7 128 54.3C149.3 56 170.7 58 192 55.5C213.3 53 234.7 46 256 44C277.3 42 298.7 45 320 44.2C341.3 43.3 362.7 38.7 384 36.5C405.3 34.3 426.7 34.7 448 38.3C469.3 42 490.7 49 512 50.5C533.3 52 554.7 48 576 44.7C597.3 41.3 618.7 38.7 640 37.8C661.3 37 682.7 38 704 40.7C725.3 43.3 746.7 47.7 768 50C789.3 52.3 810.7 52.7 832 50.8C853.3 49 874.7 45 896 44.5C917.3 44 938.7 47 949.3 48.5L960 50L960 0L949.3 0C938.7 0 917.3 0 896 0C874.7 0 853.3 0 832 0C810.7 0 789.3 0 768 0C746.7 0 725.3 0 704 0C682.7 0 661.3 0 640 0C618.7 0 597.3 0 576 0C554.7 0 533.3 0 512 0C490.7 0 469.3 0 448 0C426.7 0 405.3 0 384 0C362.7 0 341.3 0 320 0C298.7 0 277.3 0 256 0C234.7 0 213.3 0 192 0C170.7 0 149.3 0 128 0C106.7 0 85.3 0 64 0C42.7 0 21.3 0 10.7 0L0 0Z" fill="#8e9489"></path><path d="M0 18L10.7 19.8C21.3 21.7 42.7 25.3 64 25.3C85.3 25.3 106.7 21.7 128 21.3C149.3 21 170.7 24 192 23.8C213.3 23.7 234.7 20.3 256 21.5C277.3 22.7 298.7 28.3 320 28C341.3 27.7 362.7 21.3 384 20.8C405.3 20.3 426.7 25.7 448 27.8C469.3 30 490.7 29 512 27C533.3 25 554.7 22 576 22.2C597.3 22.3 618.7 25.7 640 27.8C661.3 30 682.7 31 704 29.7C725.3 28.3 746.7 24.7 768 25.3C789.3 26 810.7 31 832 32C853.3 33 874.7 30 896 29.8C917.3 29.7 938.7 32.3 949.3 33.7L960 35L960 0L949.3 0C938.7 0 917.3 0 896 0C874.7 0 853.3 0 832 0C810.7 0 789.3 0 768 0C746.7 0 725.3 0 704 0C682.7 0 661.3 0 640 0C618.7 0 597.3 0 576 0C554.7 0 533.3 0 512 0C490.7 0 469.3 0 448 0C426.7 0 405.3 0 384 0C362.7 0 341.3 0 320 0C298.7 0 277.3 0 256 0C234.7 0 213.3 0 192 0C170.7 0 149.3 0 128 0C106.7 0 85.3 0 64 0C42.7 0 21.3 0 10.7 0L0 0Z" fill="#96a196"></path></svg>