<svg id="visual" viewBox="0 0 960 300" width="960" height="300" xmlns="http://www.w3.org/2000/svg" xmlns:xlink="http://www.w3.org/1999/xlink" version="1.1"><path d="M0 37L26.7 36.2C53.3 35.3 106.7 33.7 160 41.2C213.3 48.7 266.7 65.3 320 70.8C373.3 76.3 426.7 70.7 480 63C533.3 55.3 586.7 45.7 640 44.7C693.3 43.7 746.7 51.3 800 59.2C853.3 67 906.7 75 933.3 79L960 83L960 0L933.3 0C906.7 0 853.3 0 800 0C746.7 0 693.3 0 640 0C586.7 0 533.3 0 480 0C426.7 0 373.3 0 320 0C266.7 0 213.3 0 160 0C106.7 0 53.3 0 26.7 0L0 0Z" fill="#efebe8" stroke-linecap="round" stroke-linejoin="miter"></path></svg>